<svg width="20" height="20" viewBox="0 0 20 20" fill="none"><g clip-path="url(#clip0_59940_1771)"><g clip-path="url(#clip1_59940_1771)"><path d="M5.94128 1.49228C6.328 1.83994 6.35925 2.42978 6.0116 2.8165L3.1991 5.9415C3.02722 6.13291 2.78503 6.24619 2.52722 6.25009C2.26941 6.254 2.02332 6.15634 1.83972 5.97666L0.273315 4.41416C-0.0899658 4.04697 -0.0899658 3.45322 0.273315 3.08603C0.636597 2.71885 1.23425 2.71885 1.59753 3.08603L2.46082 3.94931L4.61316 1.55869C4.96081 1.17197 5.55066 1.14072 5.93738 1.48838L5.94128 1.49228ZM5.94128 7.74228C6.328 8.08994 6.35925 8.67978 6.0116 9.0665L3.1991 12.1915C3.02722 12.3829 2.78503 12.4962 2.52722 12.5001C2.26941 12.504 2.02332 12.4063 1.83972 12.2267L0.273315 10.6642C-0.0938721 10.297 -0.0938721 9.70322 0.273315 9.33994C0.640503 8.97666 1.23425 8.97275 1.59753 9.33994L2.46082 10.2032L4.61316 7.81259C4.96081 7.42588 5.55066 7.39463 5.93738 7.74228H5.94128ZM8.74988 3.75009C8.74988 3.05869 9.30847 2.5001 9.99988 2.5001H18.7499C19.4413 2.5001 19.9999 3.05869 19.9999 3.75009C19.9999 4.4415 19.4413 5.00009 18.7499 5.00009H9.99988C9.30847 5.00009 8.74988 4.4415 8.74988 3.75009ZM8.74988 10.0001C8.74988 9.30869 9.30847 8.75009 9.99988 8.75009H18.7499C19.4413 8.75009 19.9999 9.30869 19.9999 10.0001C19.9999 10.6915 19.4413 11.2501 18.7499 11.2501H9.99988C9.30847 11.2501 8.74988 10.6915 8.74988 10.0001ZM6.24988 16.2501C6.24988 15.5587 6.80847 15.0001 7.49988 15.0001H18.7499C19.4413 15.0001 19.9999 15.5587 19.9999 16.2501C19.9999 16.9415 19.4413 17.5001 18.7499 17.5001H7.49988C6.80847 17.5001 6.24988 16.9415 6.24988 16.2501ZM1.87488 14.3751C2.37216 14.3751 2.84907 14.5726 3.2007 14.9243C3.55233 15.2759 3.74988 15.7528 3.74988 16.2501C3.74988 16.7474 3.55233 17.2243 3.2007 17.5759C2.84907 17.9275 2.37216 18.1251 1.87488 18.1251C1.3776 18.1251 0.900683 17.9275 0.549053 17.5759C0.197422 17.2243 -0.000122082 16.7474 -0.000122082 16.2501C-0.000122082 15.7528 0.197422 15.2759 0.549053 14.9243C0.900683 14.5726 1.3776 14.3751 1.87488 14.3751Z"/></g></g><defs><clipPath id="clip0_59940_1771"><rect width="20" height="20" fill="white"/></clipPath><clipPath id="clip1_59940_1771"><path d="M0 0H20V20H0V0Z"/></clipPath></defs></svg>