<svg 
  xmlns="http://www.w3.org/2000/svg" 
  width="24" 
  height="24" 
  viewBox="0 0 24 24" 
  fill="currentColor"
>
  <path d="M19.5 5.25H16.875V4.5C16.875 3.25781 15.8672 2.25 14.625 2.25H9.375C8.13281 2.25 7.125 3.25781 7.125 4.5V5.25H4.5C4.08594 5.25 3.75 5.58594 3.75 6C3.75 6.41406 4.08594 6.75 4.5 6.75H5.25V18.75C5.25 20.2695 6.48047 21.5 8 21.5H16C17.5195 21.5 18.75 20.2695 18.75 18.75V6.75H19.5C19.9141 6.75 20.25 6.41406 20.25 6C20.25 5.58594 19.9141 5.25 19.5 5.25ZM8.625 4.5C8.625 4.08594 8.96094 3.75 9.375 3.75H14.625C15.0391 3.75 15.375 4.08594 15.375 4.5V5.25H8.625V4.5ZM17.25 18.75C17.25 19.3711 16.6211 20 16 20H8C7.37891 20 6.75 19.3711 6.75 18.75V6.75H17.25V18.75ZM10.125 17.25C10.5391 17.25 10.875 16.9141 10.875 16.5V10.5C10.875 10.0859 10.5391 9.75 10.125 9.75C9.71094 9.75 9.375 10.0859 9.375 10.5V16.5C9.375 16.9141 9.71094 17.25 10.125 17.25ZM13.875 17.25C14.2891 17.25 14.625 16.9141 14.625 16.5V10.5C14.625 10.0859 14.2891 9.75 13.875 9.75C13.4609 9.75 13.125 10.0859 13.125 10.5V16.5C13.125 16.9141 13.4609 17.25 13.875 17.25Z"/>
</svg>
